<svg width="480pt" height="290pt" viewBox="0 0 480 290" version="1.1" xmlns="http://www.w3.org/2000/svg" xmlns:xlink="http://www.w3.org/1999/xlink" xmlns:xml="http://www.w3.org/XML/1998/namespace">
  <g id="surface2" transform="matrix(1,0,0,1,0,0)">
    <path style=" stroke:none;fill-rule:evenodd;fill:rgb(53.333216%,11.764680%,29.019544%);fill-opacity:1;" d="M 234.750000 161.800781 C 240.183594 156.734375 244.351562 151.816406 247.250000 147.050781 C 250.117188 142.285156 252.035156 137.632812 253.000000 133.101562 C 253.964844 128.535156 254.250000 124.082031 253.851562 119.750000 C 253.484375 115.382812 252.750000 111.082031 251.648438 106.851562 C 250.550781 102.582031 249.398438 98.367188 248.199219 94.199219 C 247.000000 90.035156 246.035156 85.882812 245.300781 81.750000 C 244.566406 77.582031 244.398438 73.417969 244.800781 69.250000 C 245.167969 65.050781 246.398438 60.816406 248.500000 56.550781 C 250.566406 52.285156 253.800781 47.933594 258.199219 43.500000 C 252.101562 48.734375 247.433594 53.734375 244.199219 58.500000 C 240.964844 63.265625 238.816406 67.898438 237.750000 72.398438 C 236.648438 76.898438 236.285156 81.332031 236.648438 85.699219 C 236.984375 90.101562 237.667969 94.535156 238.699219 99.000000 C 239.699219 103.433594 240.699219 108.000000 241.699219 112.699219 C 242.699219 117.398438 243.300781 122.300781 243.500000 127.398438 C 243.734375 132.500000 243.214844 137.898438 241.949219 143.601562 C 240.648438 149.265625 238.250000 155.332031 234.750000 161.800781 "/>
    <path style=" stroke:none;fill-rule:evenodd;fill:rgb(0%,18.039216%,43.137255%);fill-opacity:1;" d="M 232.250000 97.351562 C 237.851562 95.515625 242.851562 93.449219 247.250000 91.148438 C 251.648438 88.851562 255.183594 86.500000 257.851562 84.101562 C 259.984375 85.101562 261.332031 86.449219 261.898438 88.148438 C 262.500000 90.351562 261.734375 92.765625 259.601562 95.398438 C 257.464844 98.035156 254.300781 100.632812 250.101562 103.199219 C 245.867188 105.765625 240.882812 108.101562 235.148438 110.199219 C 233.984375 105.964844 233.015625 101.683594 232.250000 97.351562 M 269.699219 88.550781 C 269.234375 87.050781 268.050781 85.867188 266.148438 85.000000 C 264.250000 84.101562 261.800781 83.515625 258.800781 83.250000 C 260.300781 81.785156 261.367188 80.351562 262.000000 78.949219 C 262.632812 77.550781 262.785156 76.250000 262.449219 75.050781 C 261.851562 73.250000 260.265625 71.882812 257.699219 70.949219 C 255.101562 70.050781 251.765625 69.582031 247.699219 69.550781 C 249.566406 70.050781 251.082031 70.734375 252.250000 71.601562 C 253.449219 72.433594 254.234375 73.449219 254.601562 74.648438 C 255.167969 76.683594 254.566406 78.882812 252.800781 81.250000 C 251.035156 83.648438 248.351562 86.050781 244.750000 88.449219 C 241.148438 90.851562 236.867188 93.082031 231.898438 95.148438 C 231.132812 90.285156 230.917969 85.351562 231.250000 80.351562 C 231.617188 75.351562 232.785156 70.265625 234.750000 65.101562 C 236.714844 59.933594 239.765625 54.667969 243.898438 49.300781 C 248.035156 43.933594 253.535156 38.433594 260.398438 32.800781 C 249.601562 39.667969 241.183594 46.550781 235.148438 53.449219 C 229.117188 60.351562 225.285156 67.449219 223.648438 74.750000 C 222.015625 82.050781 222.417969 89.714844 224.851562 97.750000 C 223.882812 98.082031 222.898438 98.398438 221.898438 98.699219 C 218.632812 99.667969 215.464844 100.449219 212.398438 101.050781 C 209.300781 101.648438 206.351562 102.066406 203.550781 102.300781 C 206.617188 102.367188 210.000000 102.148438 213.699219 101.648438 C 217.367188 101.148438 221.250000 100.382812 225.351562 99.351562 C 226.648438 103.351562 228.417969 107.484375 230.648438 111.750000 C 230.183594 111.882812 229.699219 112.035156 229.199219 112.199219 C 225.933594 113.167969 222.750000 113.949219 219.648438 114.550781 C 216.582031 115.148438 213.632812 115.566406 210.800781 115.800781 C 213.734375 115.867188 216.949219 115.667969 220.449219 115.199219 C 223.917969 114.765625 227.566406 114.082031 231.398438 113.148438 C 233.667969 117.285156 236.332031 121.535156 239.398438 125.898438 C 238.167969 121.300781 236.898438 116.683594 235.601562 112.050781 C 236.000000 111.949219 236.398438 111.832031 236.800781 111.699219 C 241.867188 110.199219 246.515625 108.464844 250.750000 106.500000 C 254.949219 104.566406 258.550781 102.550781 261.550781 100.449219 C 264.582031 98.316406 266.816406 96.234375 268.250000 94.199219 C 269.683594 92.167969 270.167969 90.285156 269.699219 88.550781 "/>
  </g>
  <g id="surface4">
    <text style="fill:rgb(0,46,110)" font-family="Palermo" font-size="50" id="0" transform="matrix(1,0,0,1,64.35,156.6) translate(3.04,50.089999999999996)" xml:space="preserve"><![CDATA[HIPOTECARIS]]></text>
    <text style="fill:rgb(174,51,45)" font-family="Palermo" font-size="35" id="1" transform="matrix(1,0,0,1,65.55,221.75) translate(2.13,35.080000000000005)" xml:space="preserve"><![CDATA[Agentes Hipotecarios]]></text>
  </g>
</svg>